<svg width="67" height="52" viewBox="0 0 67 52" fill="none" xmlns="http://www.w3.org/2000/svg">
<path d="M23.6404 10.5393C25.2842 7.30668 29.9021 7.30668 31.5459 10.5393L33.592 14.5631C34.2352 15.8279 35.4447 16.7085 36.8458 16.9321L41.3171 17.6458C44.8878 18.2157 46.312 22.5898 43.7614 25.1528L40.5425 28.3875C39.5452 29.3896 39.0856 30.8073 39.3051 32.2039L40.0123 36.7036C40.5747 40.2822 36.8415 42.9888 33.6152 41.3416L29.6095 39.2965C28.343 38.6499 26.8432 38.6499 25.5767 39.2965L21.5711 41.3416C18.3448 42.9888 14.6116 40.2822 15.174 36.7036L15.8812 32.2039C16.1007 30.8073 15.6411 29.3896 14.6438 28.3875L11.4248 25.1528C8.87428 22.5898 10.2985 18.2157 13.8692 17.6458L18.3404 16.9321C19.7416 16.7085 20.9511 15.8279 21.5942 14.5631L23.6404 10.5393Z" fill="#FFE550"/>
<path d="M2.56831 33.0787L2.5338 33.0869C2.53792 33.2075 2.53142 33.6952 2.51429 34.55C2.50866 35.4021 2.50693 35.9616 2.50911 36.2284C2.50857 36.4838 2.50293 36.6917 2.49219 36.8523C2.49295 37.0101 2.49339 37.1923 2.4935 37.3989C2.4909 37.594 2.48016 37.7545 2.46127 37.8805C2.45118 37.9923 2.44109 38.1041 2.431 38.2159C2.4081 38.4279 2.36213 38.5421 2.2931 38.5585C2.14352 38.594 1.90993 38.4793 1.59233 38.2143C1.27201 37.9379 1.08742 37.6961 1.03857 37.4889C0.989724 37.2818 0.978406 35.7652 1.00462 32.9394C1.04234 30.1108 0.968218 28.2506 0.782264 27.3589C0.741557 27.1863 0.74926 27.0386 0.805375 26.9159C0.863442 26.6469 1.16215 26.3937 1.7015 26.1564C2.25236 25.9162 3.07431 25.6665 4.16735 25.4071C5.2719 25.145 6.14839 24.9978 6.79684 24.9654C7.45679 24.9303 7.81119 25.0164 7.86004 25.2235C7.8926 25.3617 7.81787 25.4827 7.63584 25.5867C7.45382 25.6906 7.29209 25.7776 7.15066 25.8477C7.00651 25.9062 6.8177 25.9814 6.58422 26.0732C6.34803 26.1536 6.12909 26.2298 5.92742 26.302C5.72303 26.3627 5.45808 26.4499 5.13255 26.5636C4.81854 26.6745 4.52753 26.7801 4.25954 26.8801C3.98883 26.9687 3.62439 27.0977 3.16623 27.2672C2.70806 27.4367 2.4113 27.5436 2.27595 27.5878C2.2956 27.6196 2.31356 27.6701 2.32985 27.7391C2.4574 28.2801 2.52613 29.5764 2.53605 31.628C3.25754 31.4932 4.0186 31.2944 4.81922 31.0315C5.63134 30.7658 6.12945 30.6111 6.31354 30.5675C6.75076 30.4637 6.99108 30.5039 7.0345 30.6881C7.11863 31.0448 6.68869 31.4629 5.74469 31.9421C4.81219 32.4186 3.7534 32.7975 2.56831 33.0787Z" fill="#2C2C2C"/>
<path d="M13.8352 29.8945C13.743 29.5032 13.5928 29.1499 13.3849 28.8347C13.1742 28.5079 12.929 28.2926 12.6494 28.1888C11.9071 28.5959 11.3677 29.3741 11.0312 30.5235C10.7035 31.6586 10.6442 32.6693 10.8532 33.5555C11.0621 34.4418 11.411 34.9424 11.8998 35.0573C12.6902 34.6996 13.2591 33.969 13.6064 32.8657C13.9625 31.7481 14.0388 30.7578 13.8352 29.8945ZM9.33289 31.1271C9.52391 30.1337 9.87373 29.2729 10.3824 28.5445C10.8998 27.8019 11.4979 27.35 12.1767 27.1889C12.8671 27.0251 13.5116 27.1821 14.1102 27.6599C14.7061 28.1261 15.1031 28.7794 15.3012 29.6196C15.4966 30.4482 15.4961 31.3477 15.2997 32.318C15.1005 33.2768 14.7121 34.1286 14.1344 34.8734C13.5656 35.6039 12.8842 36.0633 12.0903 36.2517C11.5035 36.391 10.9507 36.2366 10.432 35.7884C9.91325 35.3403 9.55618 34.7019 9.36079 33.8732C9.16268 33.033 9.15338 32.1176 9.33289 31.1271Z" fill="#2C2C2C"/>
<path d="M21.6555 28.0387C21.5632 27.6474 21.4131 27.2941 21.2051 26.9788C20.9944 26.6521 20.7493 26.4368 20.4697 26.333C19.7273 26.7401 19.188 27.5183 18.8515 28.6677C18.5238 29.8028 18.4645 30.8135 18.6734 31.6997C18.8824 32.5859 19.2313 33.0865 19.72 33.2015C20.5105 32.8437 21.0793 32.1132 21.4266 31.0099C21.7828 29.8923 21.859 28.9019 21.6555 28.0387ZM17.1532 29.2712C17.3442 28.2779 17.694 27.4171 18.2026 26.6887C18.72 25.9461 19.3182 25.4942 19.997 25.3331C20.6873 25.1693 21.3318 25.3263 21.9305 25.804C22.5264 26.2703 22.9234 26.9235 23.1215 27.7637C23.3169 28.5924 23.3164 29.4919 23.1199 30.4622C22.9208 31.421 22.5324 32.2728 21.9547 33.0175C21.3858 33.7481 20.7045 34.2075 19.9106 34.3959C19.3238 34.5352 18.771 34.3807 18.2523 33.9326C17.7335 33.4845 17.3764 32.8461 17.181 32.0174C16.9829 31.1772 16.9736 30.2618 17.1532 29.2712Z" fill="#2C2C2C"/>
<path d="M29.8185 17.8978C30.0026 17.8542 30.2677 17.9736 30.6137 18.256C30.9685 18.5243 31.1812 18.808 31.2518 19.1073C31.3224 19.4065 31.3794 20.2924 31.4228 21.7648C31.4635 23.2257 31.4705 24.7494 31.4436 26.3357C31.4076 29.8931 31.2573 31.7032 30.9927 31.766C30.8316 31.8042 30.6302 31.7487 30.3885 31.5995C30.1555 31.436 30.0214 31.2794 29.9861 31.1298C29.9509 30.9802 29.9206 30.6714 29.8953 30.2034C29.0391 31.6219 28.191 32.4309 27.3511 32.6302C26.8449 32.7503 26.3304 32.6294 25.8076 32.2673C25.2964 31.9024 24.9824 31.4726 24.8657 30.9777C24.6974 30.2641 24.6878 29.3731 24.8368 28.3046C24.9946 27.222 25.341 26.1918 25.8759 25.2141C26.4108 24.2364 27.0867 23.6507 27.9036 23.4568C28.7205 23.2629 29.4053 23.6169 29.9582 24.5188C29.9696 21.9395 29.8372 19.9352 29.5609 18.5059C29.4795 18.1606 29.5654 17.9579 29.8185 17.8978ZM29.9188 26.8252C29.7723 26.2037 29.5395 25.7059 29.2205 25.3319C28.9129 24.9552 28.6096 24.8024 28.3105 24.8734C27.8157 24.9908 27.3814 25.4159 27.0075 26.1488C26.6335 26.8817 26.3849 27.682 26.2615 28.5499C26.1469 29.4036 26.1574 30.1181 26.2931 30.6936C26.342 30.9008 26.4561 31.0499 26.6355 31.141C26.8149 31.2321 27.0082 31.2531 27.2153 31.204C27.664 31.0975 28.1921 30.6319 28.7995 29.8071C29.4184 28.9797 29.7973 28.0876 29.9362 27.131L29.9392 26.9115L29.9188 26.8252Z" fill="#2C2C2C"/>
<path d="M40.9351 25.7787C41.1576 26.7225 40.9191 27.6177 40.2197 28.4643C39.5175 29.2994 38.6142 29.848 37.5096 30.1101C36.4166 30.3695 35.4469 30.3018 34.6006 29.9071C33.7515 29.5009 33.2673 29.0446 33.1479 28.5382C33.0665 28.1929 33.1293 27.9957 33.3364 27.9466C33.5205 27.9029 33.9481 28.0931 34.6191 28.5172C34.8724 28.6637 35.1919 28.7824 35.5778 28.8731C35.9752 28.9611 36.3695 28.9587 36.7607 28.8659C37.566 28.6747 38.2305 28.2983 38.7542 27.7365C39.2893 27.172 39.4998 26.648 39.3859 26.1646C39.3126 25.8538 39.0119 25.5059 38.4837 25.1208C37.9555 24.7357 37.3881 24.3903 36.7814 24.0846C36.1835 23.7646 35.6191 23.4063 35.0882 23.0097C34.5573 22.6131 34.258 22.2709 34.1901 21.9832C34.1223 21.6954 34.1079 21.3768 34.147 21.0272C34.186 20.6776 34.257 20.4116 34.3597 20.2292C34.6918 19.6278 35.2807 19.008 36.1264 18.3698C36.9837 17.7288 37.7345 17.3319 38.3788 17.179C38.7125 17.0998 39.0202 17.1422 39.3018 17.3063C39.5835 17.4704 39.7528 17.6733 39.8098 17.915C39.837 18.0301 39.7379 18.1508 39.5125 18.2772C39.2872 18.4036 38.9407 18.5831 38.4731 18.8156C38.0143 19.0338 37.6127 19.2628 37.2683 19.5026C36.0646 20.323 35.5183 20.9691 35.6296 21.441C35.6893 21.6942 36.5293 22.2423 38.1495 23.0854C38.7731 23.4114 39.3626 23.8245 39.9179 24.3247C40.482 24.8106 40.8211 25.2953 40.9351 25.7787Z" fill="#2C2C2C"/>
<path d="M44.8976 26.6432C44.9492 26.8619 45.1015 26.9412 45.3547 26.8811C45.7919 26.7773 46.2926 26.5309 46.857 26.1417C47.4301 25.7384 47.7511 25.5285 47.8202 25.5121C48.0273 25.4629 48.1566 25.5477 48.2082 25.7664C48.2869 26.1002 48.0326 26.5677 47.4454 27.1688C46.8697 27.7673 46.2999 28.1334 45.7362 28.2672C45.1839 28.3983 44.6884 28.3579 44.2496 28.146C43.8082 27.9226 43.5495 27.6498 43.4735 27.3275C43.3975 27.0052 43.3702 26.5803 43.3916 26.0526C43.4102 25.5134 43.4498 24.8052 43.5102 23.9279C43.5794 23.0364 43.6251 22.3025 43.6471 21.726C43.1362 21.981 42.7887 22.1303 42.6046 22.174C42.4205 22.2177 42.2147 22.1693 41.9872 22.0288C41.7685 21.8741 41.6388 21.7104 41.598 21.5378C41.5329 21.2615 42.2184 20.8193 43.6544 20.2112C43.6362 19.2067 43.5403 18.3362 43.3666 17.5996C43.2852 17.2543 43.3596 17.0544 43.5897 16.9997C43.7853 16.9533 44.0568 17.0226 44.4041 17.2075C44.7487 17.381 44.9577 17.6231 45.031 17.9338C45.1042 18.2446 45.1353 18.8145 45.1243 19.6436C45.7665 19.4304 46.2833 19.2774 46.6745 19.1846C47.3648 19.0207 47.7453 19.0884 47.8158 19.3877C47.8565 19.5603 47.7006 19.7493 47.3481 19.9545C47.007 20.1569 46.2667 20.521 45.1271 21.0467C45.0999 22.0133 45.0406 23.1272 44.9492 24.3886C44.8551 25.6384 44.8379 26.39 44.8976 26.6432Z" fill="#2C2C2C"/>
<path d="M52.6176 17.5919C53.1354 17.469 53.6753 17.6204 54.2373 18.0461C54.7967 18.4603 55.1265 18.8803 55.2269 19.3062C55.3246 19.7205 55.2812 20.1805 55.0967 20.6861C55.2755 20.826 55.3798 20.9592 55.4097 21.0858C55.4856 21.4081 55.5411 21.9783 55.5761 22.7965C55.6226 23.6119 55.657 24.1445 55.6795 24.3944C55.7135 24.6416 55.7366 24.8427 55.7489 24.9978C55.7584 25.1414 55.7622 25.2863 55.7603 25.4326C55.7821 25.7313 55.7125 25.8997 55.5514 25.938C55.3443 25.9871 55.1297 25.8497 54.9075 25.5256C54.6941 25.1874 54.508 24.7332 54.3493 24.1632C53.632 25.7068 52.8361 26.5823 51.9616 26.7899C51.4324 26.9154 50.8559 26.8152 50.2323 26.4892C49.6175 26.149 49.2532 25.7372 49.1392 25.2538C48.9763 24.5632 49.0286 23.6514 49.2961 22.5184C49.5608 21.3739 50.0022 20.309 50.6204 19.3238C51.2385 18.3385 51.9043 17.7612 52.6176 17.5919ZM54.128 20.442C53.8756 19.3716 53.5365 18.8869 53.1108 18.988C52.6621 19.0945 52.2146 19.541 51.7682 20.3275C51.3192 21.1025 50.9826 21.942 50.7583 22.8459C50.5341 23.7499 50.4776 24.4378 50.5889 24.9097C50.635 25.1054 50.7536 25.2474 50.9445 25.3358C51.1327 25.4127 51.3361 25.4252 51.5547 25.3733C52.0955 25.245 52.6198 24.7377 53.1277 23.8515C53.6328 22.9538 53.8942 21.9498 53.9119 20.8397C53.9057 20.6588 53.9791 20.532 54.132 20.4593L54.128 20.442Z" fill="#2C2C2C"/>
<path d="M50.5889 32.4588C50.0957 32.5812 49.7072 32.9568 49.5451 33.4385C46.4552 42.6232 37.8012 49.2285 27.6212 49.2285C21.4466 49.2285 15.8335 46.7985 11.6828 42.8368C11.3146 42.4855 10.7951 42.3345 10.3011 42.4571C9.26318 42.7147 8.86967 43.9719 9.63805 44.7157C14.2974 49.2259 20.6365 52 27.6212 52C39.0934 52 48.8239 44.5164 52.2304 34.148C52.5646 33.1307 51.6283 32.2009 50.5889 32.4588Z" fill="#BBF330"/>
<path d="M3.77861 22.9912C4.34063 22.8517 4.75727 22.3831 4.86053 21.8133C6.82452 10.9767 16.275 2.77153 27.6212 2.77153C34.9998 2.77153 41.5767 6.24161 45.8143 11.6488C46.1717 12.105 46.7594 12.3246 47.3218 12.185C48.27 11.9497 48.6991 10.8481 48.1015 10.0752C43.3622 3.94518 35.9508 0 27.6212 0C14.8465 0 4.2314 9.27939 2.10301 21.4883C1.93511 22.4513 2.82977 23.2267 3.77861 22.9912Z" fill="#BBF330"/>
<path d="M66.5756 8.66363C60.4531 20.4304 57.7654 12.6692 49.1469 17.2283C50.0089 3.56927 59.1369 11.8802 66.5756 8.66363Z" fill="#BBF330"/>
</svg>
